<svg version="1.1" id="Layer_1" xmlns="http://www.w3.org/2000/svg" xmlns:xlink="http://www.w3.org/1999/xlink" x="0px" y="0px" viewBox="0 0 500 500" style="width: 172px;" xml:space="preserve" data-imageid="paris-43" imageName="Paris" class="illustrations_image">
<style type="text/css">
	.st0_paris-43{fill:#FFFFFF;}
	.st1_paris-43{fill:#093F68;}
	.st2_paris-43{fill:#DFEAEF;}
	.st3_paris-43{fill:#68E1FD;}
</style>
<g id="circle_paris-43">
	<path class="st0_paris-43" d="M428.7,273.3c0,98.7-80,178.7-178.6,178.7c-98.7,0-178.7-80-178.7-178.6c0,0,0,0,0,0&#xA;&#9;&#9;c0-97.6,78.4-177,175.6-178.6c1,0,2,0,3.1,0s2,0,3,0C350.3,96.3,428.7,175.7,428.7,273.3z"/>
</g>
<g id="circle-2_paris-43">
	<path class="st1_paris-43" d="M250,453.9c-32.8,0.1-65-8.9-93.1-25.8c-54.8-33-87.5-90.9-87.5-154.8c0-98.5,79-178.9,177.5-180.6&#xA;&#9;&#9;c2-0.1,4.1-0.1,6.2,0c99.7,1.8,179.1,84.1,177.3,183.8C428.6,375,348.4,453.8,250,453.9z M249.9,96.6c-1,0-1.9,0-2.9,0&#xA;&#9;&#9;c-96.5,1.6-173.8,80.3-173.8,176.8c0,62.5,32,119.1,85.6,151.5c44.6,26.8,98.7,32.6,148,15.9c92.4-31.4,141.9-131.8,110.5-224.2&#xA;&#9;&#9;c-24-70.6-89.8-118.6-164.4-119.9C252,96.6,250.9,96.6,249.9,96.6L249.9,96.6z"/>
</g>
<g id="clouds_paris-43">
	<path class="st2_paris-43" d="M236,210.1h-66.1c-7.7,0-13.9-5-13.9-11.2c0-4.8,3.8-9,9.2-10.6c2.2-4.7,7.5-7.9,13.7-8.3&#xA;&#9;&#9;c1.5-6.1,8.2-10.7,16.1-10.7c6.4,0,12.2,3,14.9,7.6c3.4-1.6,7.2-2.5,11-2.5c10.5,0,19.4,6.2,20.9,14.3c4.9,1.8,8,5.8,8,10.2&#xA;&#9;&#9;C249.9,205.1,243.7,210.1,236,210.1z M180.6,183.8c-5.7,0-10.6,2.8-12.2,6.9c-0.2,0.6-0.8,1.1-1.4,1.2c-4.2,0.9-7.2,3.8-7.2,7.1&#xA;&#9;&#9;c0,4.1,4.5,7.4,10.1,7.4H236c5.6,0,10.1-3.3,10.1-7.4c0-3-2.6-5.8-6.5-6.9c-0.8-0.2-1.3-0.9-1.4-1.7c-0.6-6.8-8.2-12.1-17.3-12.1&#xA;&#9;&#9;c-3.8,0-7.6,1-10.9,2.9c-0.9,0.6-2.1,0.3-2.6-0.6c-0.1-0.1-0.1-0.2-0.2-0.4c-1.5-4.1-6.5-7-12.2-7c-6.7,0-12.2,3.9-12.6,8.8&#xA;&#9;&#9;C182.4,183,181.6,183.8,180.6,183.8L180.6,183.8z"/>
	<path class="st2_paris-43" d="M214,191.6c-0.9,0-1.7-0.7-1.9-1.6l0,0c0,0-0.8-4.5-4.3-6.6c-2.3-1.4-5.4-1.5-9.2-0.4c-1,0.3-2.1-0.2-2.4-1.3&#xA;&#9;&#9;c-0.3-1,0.2-2.1,1.3-2.4c4.9-1.5,9-1.3,12.4,0.8c5,3.1,6,9,6.1,9.2c0.2,1-0.5,2-1.6,2.2C214.2,191.6,214.1,191.6,214,191.6z"/>
	<path class="st2_paris-43" d="M170.5,295.6h-43.1c-5.4,0-9.7-3.6-9.7-8c0-3,2.1-5.8,5.3-7.1c1.2-5.5,7.1-9.5,14.2-9.5c2.4,0,4.7,0.5,6.9,1.4&#xA;&#9;&#9;c2.3-3.1,6.1-4.9,9.9-4.7c5.3,0,9.8,3,11,7c3.7,0.3,7.1,2.3,9,5.5c3.7,1.2,6.2,4.1,6.2,7.5C180.2,292,175.9,295.6,170.5,295.6z&#xA;&#9;&#9; M137.2,274.9c-5.6,0-10.2,3.2-10.6,7.3c-0.1,0.8-0.6,1.5-1.4,1.7c-2.2,0.6-3.7,2.2-3.7,3.8c0,2.2,2.7,4.1,5.9,4.1h43.1&#xA;&#9;&#9;c3.2,0,5.9-1.9,5.9-4.1c0-1.8-1.7-3.4-4.2-4c-0.6-0.1-1.2-0.6-1.4-1.2c-0.9-2.4-3.9-4-7.3-4c-1,0-1.8-0.8-1.9-1.8&#xA;&#9;&#9;c-0.2-2.8-3.6-5.1-7.5-5.1c-3.4,0-6.4,1.7-7.3,4.1c-0.4,1-1.4,1.5-2.4,1.2c-0.1,0-0.2-0.1-0.4-0.2&#xA;&#9;&#9;C141.9,275.5,139.6,274.8,137.2,274.9L137.2,274.9z"/>
	<path class="st2_paris-43" d="M151.4,285.3c-1,0-1.9-0.8-1.9-1.8c-0.3-4.3-5.3-6.7-5.4-6.7c-0.9-0.5-1.3-1.7-0.8-2.6&#xA;&#9;&#9;c0.5-0.8,1.5-1.2,2.4-0.9c0.3,0.1,7.2,3.3,7.7,10c0.1,1.1-0.7,2-1.8,2L151.4,285.3z"/>
	<path class="st2_paris-43" d="M383.8,275.2h-66.1c-7.7,0-13.9-5-13.9-11.2c0-4.4,3.2-8.4,8-10.2c1.5-8.1,10.5-14.3,20.9-14.3&#xA;&#9;&#9;c3.8,0,7.6,0.8,11,2.4c2.7-4.5,8.5-7.5,14.9-7.5c8,0,14.7,4.6,16.1,10.7c6.2,0.5,11.5,3.7,13.7,8.3c5.5,1.6,9.2,5.8,9.2,10.6&#xA;&#9;&#9;C397.7,270.2,391.4,275.2,383.8,275.2z M332.7,243.4c-9,0-16.6,5.3-17.3,12.1c-0.1,0.8-0.6,1.4-1.4,1.7c-3.9,1.1-6.5,3.9-6.5,6.9&#xA;&#9;&#9;c0,4.1,4.5,7.4,10.1,7.4h66.1c5.5,0,10.1-3.3,10.1-7.4c0-3.2-3-6.1-7.2-7.1c-0.6-0.1-1.2-0.6-1.4-1.2c-1.5-4-6.5-6.9-12.1-6.9&#xA;&#9;&#9;c-1,0-1.9-0.8-2-1.8c-0.4-5-5.9-8.9-12.6-8.9c-5.7,0-10.7,2.9-12.2,7c-0.2,0.5-0.6,1-1.2,1.2c-0.5,0.2-1.1,0.1-1.6-0.2&#xA;&#9;&#9;C340.2,244.3,336.5,243.3,332.7,243.4z"/>
	<path class="st2_paris-43" d="M335,255.6c-0.5,0-0.9-0.2-1.2-0.5c-0.8-0.7-0.9-1.9-0.2-2.7c0,0,0,0,0,0c11.3-13.1,23.4-4.2,23.5-4.1&#xA;&#9;&#9;c0.8,0.6,1,1.8,0.4,2.7s-1.8,1-2.7,0.4l0,0c-0.4-0.3-9.4-6.8-18.3,3.5C336.1,255.4,335.6,255.6,335,255.6z"/>
	<path class="st2_paris-43" d="M155.4,401h-0.2c-0.7-0.1-1.4-0.6-1.6-1.3c-1.7-4.7-6.8-7.2-11.6-5.6c-1.4,0.5-2.6,1.3-3.6,2.4&#xA;&#9;&#9;c-0.7,0.8-1.9,0.8-2.7,0.1c-0.2-0.2-0.4-0.5-0.5-0.9c-2.1-6.5-8.5-10.7-15.3-10.1c0,0,0,0.1,0,0.1c-0.2,1-1.3,1.7-2.3,1.5&#xA;&#9;&#9;c-1.1-0.2-1.8-1.2-1.8-2.3c0.2-1.5,1.3-2.7,2.8-3c7.7-1.3,15.9,3.1,19.4,10.1c5.9-4,13.9-2.4,17.9,3.4c0.1,0.1,0.1,0.2,0.2,0.3&#xA;&#9;&#9;c1.8-1.4,3.9-2.2,6.1-2.4c3-0.1,6.1,0.6,8.7,2c0.9,0.5,1.3,1.6,0.9,2.6c-0.5,0.9-1.6,1.3-2.6,0.9c-2.1-1.1-4.4-1.7-6.7-1.6&#xA;&#9;&#9;c-2.1,0.1-4,1.2-5.2,2.9C156.8,400.6,156.1,401,155.4,401z"/>
	<path class="st2_paris-43" d="M351.6,403.9c-0.6,0-1.2-0.3-1.6-0.9c-3.6-4.6-10.2-5.5-14.8-1.9c-0.1,0-0.1,0.1-0.2,0.1&#xA;&#9;&#9;c-0.8,0.7-2,0.7-2.7-0.1c-0.7-0.8-0.7-2,0.1-2.7c0,0,0.1-0.1,0.1-0.1c3-2.6,7-3.7,10.9-3.2c2.8,0.3,5.4,1.4,7.5,3.2&#xA;&#9;&#9;c0.9-2.1,2.4-3.8,4.3-5.1c2.5-1.5,5.6-1.7,8.3-0.3c4.7-7,13-10.5,21.3-9.1c1,0.2,1.7,1.2,1.5,2.3c-0.2,1-1.2,1.7-2.3,1.5l0,0&#xA;&#9;&#9;c-7.4-1.3-14.9,2.4-18.3,9.1c-0.3,0.6-0.9,1-1.5,1.1c-0.7,0.1-1.3-0.2-1.7-0.8c-1.1-1.5-3.6-1.5-5.2-0.5c-2.1,1.3-3.2,3.9-3.8,5.9&#xA;&#9;&#9;c-0.2,0.7-0.8,1.3-1.5,1.4C351.8,403.8,351.7,403.8,351.6,403.9z"/>
	<path class="st2_paris-43" d="M250.1,447.3h-0.4c-0.8-0.2-1.5-0.9-1.6-1.7c-0.2-1.8-1.4-3.4-3.1-4.2c-0.3-0.1-0.5-0.2-0.8-0.3&#xA;&#9;&#9;c-0.8-0.2-1.5-0.6-2.2-1c-0.7-0.5-1.3-1.1-1.8-1.8l-0.5-0.5c-2.4-2.5-6.2-2.9-9.1-1.1c-0.9,0.6-2.1,0.4-2.7-0.5&#xA;&#9;&#9;c-0.1-0.1-0.1-0.2-0.2-0.4c-1.1-2.8-2.2-5.7-4.2-7.8c-1.6-1.7-4.3-3-6.7-2.2c-1,0.4-2.1-0.2-2.5-1.2s0.2-2.1,1.2-2.5l0,0&#xA;&#9;&#9;c4-1.5,8.3,0.5,10.8,3.1c1.8,2.1,3.3,4.5,4.3,7.1c4.2-1.5,8.9-0.4,12,2.8c0.2,0.2,0.4,0.5,0.6,0.7c0.3,0.4,0.6,0.8,1,1.1&#xA;&#9;&#9;c0.4,0.2,0.8,0.4,1.3,0.5c0.4,0.1,0.7,0.2,1.1,0.4c1.7,0.7,3.1,1.9,4.1,3.5c2-2,4.6-3.4,7.4-3.9c3.3-0.7,6.8-0.2,9.8,1.4&#xA;&#9;&#9;c1.8-2.7,4.5-4.8,7.6-5.6c-0.2-2.4,0.3-4.8,1.5-6.9c1.5-2.8,4.2-4.7,7.3-5.4c1-0.2,2.1,0.5,2.2,1.5s-0.5,2.1-1.5,2.2l0,0&#xA;&#9;&#9;c-4.1,1-6.5,5.2-5.5,9.2c0,0,0,0.1,0,0.1c0.2,0.6,0.1,1.2-0.2,1.7c-0.3,0.5-0.8,0.8-1.4,0.9c-3.4,0.4-6.3,2.6-7.6,5.7&#xA;&#9;&#9;c-0.2,0.6-0.7,1-1.3,1.2c-0.6,0.1-1.2,0-1.7-0.4c-4.7-3.5-11.4-2.5-14.9,2.2c-0.2,0.3-0.4,0.6-0.6,0.9&#xA;&#9;&#9;C251.5,446.9,250.8,447.3,250.1,447.3z"/>
</g>
<g id="building_paris-43">
	<path class="st3_paris-43 targetColor" d="M318.5,385c-3.5-6.7-6.8-13.3-9.9-20c-1.6-3.5-3.1-6.9-4.6-10.3c-8.4-19.4-15.6-39.3-21.4-59.7&#xA;&#9;&#9;c-1-3.6-2-7.1-2.9-10.6c-1.2-4.5-2.3-9-3.3-13.4c-9.1-38.3-13.8-77.6-14.1-117c0-2.9,0-5.6,0-8.1c0.1-5.9,0.3-10.4,0.5-13.3&#xA;&#9;&#9;c0.2-2.6,0.3-4.1,0.3-4.1h-26.1c0,0,0.1,1.4,0.3,4.1c0.1,3,0.4,7.5,0.5,13.3c0.1,2.5,0.1,5.2,0.1,8.1c-0.2,39.4-4.6,78.6-13.4,117&#xA;&#9;&#9;c-1,4.4-2.1,8.9-3.2,13.4c-0.9,3.5-1.9,7.1-2.9,10.6c-5.6,20.3-12.7,40.3-21,59.7c-1.5,3.5-3,6.9-4.6,10.3&#xA;&#9;&#9;c-3.1,6.7-6.4,13.3-9.9,20c-7.5,14.3-15.8,28.1-25,41.4c10.9,6.6,22.6,12,34.7,16.1c17.9-31.7,58.2-42.9,89.9-25&#xA;&#9;&#9;c10.4,5.9,19.1,14.5,25,25c12.4-4.2,24.3-9.7,35.5-16.5C334,412.8,325.9,399.1,318.5,385z M274.3,354.7h-48.6l0,0l18-46.4h12.5&#xA;&#9;&#9;L274.3,354.7L274.3,354.7z" style="fill: rgb(104, 225, 253);"/>
	<path class="st1_paris-43" d="M274.3,356.7h-48.6c-1.1,0-2-0.9-2-2c0-0.3,0-0.5,0.1-0.7l18-46.4c0.3-0.8,1-1.3,1.9-1.3h12.5&#xA;&#9;&#9;c0.8,0,1.6,0.5,1.9,1.3l18,46.4c0.4,1-0.1,2.2-1.1,2.6C274.7,356.6,274.5,356.7,274.3,356.7L274.3,356.7z M225.7,354.7L225.7,354.7&#xA;&#9;&#9;z M228.6,352.7h42.7l-16.5-42.5h-9.8L228.6,352.7z"/>
	<path class="st1_paris-43" d="M307.5,444.5c-0.7,0-1.4-0.4-1.7-1c-17.4-30.8-56.4-41.6-87.2-24.2c-10.1,5.7-18.5,14.1-24.2,24.2&#xA;&#9;&#9;c-0.5,0.8-1.5,1.2-2.4,0.9c-12.2-4.2-23.9-9.6-35-16.3c-0.5-0.3-0.8-0.7-0.9-1.3c-0.1-0.5,0-1.1,0.3-1.6&#xA;&#9;&#9;c9.1-13.2,17.4-27,24.9-41.2c3.4-6.4,6.7-13.1,9.8-19.9c1.4-3.1,2.9-6.4,4.6-10.3c8.3-19.3,15.3-39.2,20.9-59.4&#xA;&#9;&#9;c0.9-3.2,1.8-6.7,2.9-10.6c1.1-4.2,2.1-8.5,3.2-13.3c8.7-38.3,13.1-77.3,13.3-116.6c0-3.3,0-5.8-0.1-8c-0.1-5.8-0.3-10.4-0.5-13.3&#xA;&#9;&#9;c-0.1-2.6-0.3-4-0.3-4c-0.1-1.1,0.7-2.1,1.8-2.2c0.1,0,0.1,0,0.2,0h26.2c1.1,0,2,0.9,2,2c0,0.1,0,0.1,0,0.2c0,0-0.1,1.4-0.3,4&#xA;&#9;&#9;c-0.2,4.2-0.4,8.6-0.5,13.2c0,2.7,0,5.4,0,8.1c0.3,39.2,5,78.3,14,116.5c1.1,4.8,2.2,9.1,3.3,13.3c0.8,3.2,1.8,6.6,2.9,10.6&#xA;&#9;&#9;c5.8,20.3,12.9,40.1,21.3,59.4c1.5,3.4,3,6.9,4.6,10.3c3,6.4,6.2,13,9.8,20c7.3,14,15.4,27.6,24.3,40.8c0.6,0.9,0.4,2.2-0.5,2.8&#xA;&#9;&#9;c0,0,0,0-0.1,0c-11.3,6.9-23.3,12.5-35.8,16.8C307.9,444.5,307.7,444.6,307.5,444.5z M250,407c23.9,0,46.1,12.6,58.4,33.1&#xA;&#9;&#9;c11-3.9,21.7-8.8,31.7-14.8c-8.5-12.7-16.2-25.8-23.3-39.3l0,0c-3.7-7-6.9-13.6-9.9-20.1c-1.6-3.5-3.1-7-4.6-10.4&#xA;&#9;&#9;c-8.4-19.5-15.6-39.5-21.5-59.9c-1.1-4-2.1-7.5-2.9-10.7c-1.1-4.2-2.2-8.6-3.3-13.4c-9.1-38.5-13.9-77.9-14.2-117.5&#xA;&#9;&#9;c0-2.6,0-5.4,0-8.1c0.1-4.7,0.2-9.2,0.5-13.4c0-0.7,0.1-1.4,0.1-1.9h-21.8c0,0.6,0.1,1.2,0.1,2c0.2,2.9,0.4,7.6,0.5,13.4&#xA;&#9;&#9;c0.1,2.2,0.1,4.8,0.1,8.1c-0.1,39.5-4.6,78.9-13.4,117.4c-1.1,4.8-2.1,9.2-3.2,13.4c-1,4-2,7.5-2.9,10.7&#xA;&#9;&#9;c-5.6,20.4-12.7,40.5-21,59.9c-1.7,3.9-3.2,7.3-4.6,10.4c-3.2,6.9-6.5,13.6-9.9,20.1c-7.2,13.7-15.2,27-23.9,39.9&#xA;&#9;&#9;c9.8,5.8,20.2,10.5,30.9,14.3C204,419.6,226.1,407,250,407z"/>
	<path class="st3_paris-43 targetColor" d="M230.8,132.6h38.4c2.3,0,4.2,1.9,4.2,4.2v5c0,2.3-1.9,4.2-4.2,4.2h-38.4c-2.3,0-4.2-1.9-4.2-4.2v-5&#xA;&#9;&#9;C226.6,134.5,228.5,132.6,230.8,132.6z" style="fill: rgb(104, 225, 253);"/>
	<path class="st1_paris-43" d="M269.1,147.9h-38.2c-3.4,0-6.2-2.8-6.2-6.2v-4.7c0-3.4,2.8-6.2,6.2-6.2h38.2c3.4,0,6.2,2.8,6.2,6.2v4.7&#xA;&#9;&#9;C275.3,145.1,272.5,147.9,269.1,147.9L269.1,147.9z M230.9,134.5c-1.3,0-2.4,1.1-2.4,2.4v4.7c0,1.3,1.1,2.4,2.4,2.4h38.2&#xA;&#9;&#9;c1.3,0,2.4-1.1,2.4-2.4v0v-4.7c0-1.3-1.1-2.4-2.4-2.4H230.9z"/>
	<rect x="232.7" y="145.9" class="st1_paris-43" width="34.6" height="8.1"/>
	<path class="st1_paris-43" d="M267.3,156h-34.6c-1.1,0-1.9-0.9-1.9-1.9V146c0-1.1,0.9-1.9,1.9-1.9h34.6c1.1,0,1.9,0.9,1.9,1.9v0v8&#xA;&#9;&#9;C269.3,155.1,268.4,156,267.3,156C267.3,156,267.3,156,267.3,156z M234.6,152.1h30.8v-4.2h-30.8V152.1z"/>
	<rect x="235.1" y="124.5" class="st3_paris-43 targetColor" width="29.9" height="8.1" style="fill: rgb(104, 225, 253);"/>
	<path class="st1_paris-43" d="M264.9,134.5h-29.9c-1.1,0-1.9-0.9-1.9-1.9v-8.1c0-1.1,0.9-1.9,1.9-1.9h29.9c1.1,0,1.9,0.9,1.9,1.9v8.1&#xA;&#9;&#9;C266.9,133.7,266,134.5,264.9,134.5L264.9,134.5z M237,130.7h26v-4.2h-26V130.7z"/>
	<rect x="239.1" y="111.3" class="st3_paris-43 targetColor" width="21.9" height="13.2" style="fill: rgb(104, 225, 253);"/>
	<path class="st1_paris-43" d="M260.9,126.4h-21.9c-1.1,0-1.9-0.9-1.9-1.9v-13.2c0-1.1,0.9-1.9,1.9-1.9h21.9c1.1,0,1.9,0.9,1.9,1.9v13.2&#xA;&#9;&#9;C262.8,125.6,262,126.4,260.9,126.4L260.9,126.4z M241,122.6h18v-9.3h-18V122.6z"/>
	<polygon class="st3_paris-43 targetColor" points="250,48 254.1,111.3 245.9,111.3 &#9;" style="fill: rgb(104, 225, 253);"/>
	<path class="st1_paris-43" d="M254.1,113.3h-8.3c-0.5,0-1-0.2-1.4-0.6c-0.4-0.4-0.5-0.9-0.5-1.4l4.1-63.3c0.1-1.1,1-1.9,2.1-1.8&#xA;&#9;&#9;c1,0.1,1.7,0.8,1.8,1.8l4.1,63.3c0,0.5-0.1,1.1-0.5,1.4C255.2,113,254.7,113.3,254.1,113.3z M247.9,109.4h4.2l-2.1-32L247.9,109.4z&#xA;&#9;&#9;"/>
	<path class="st3_paris-43 targetColor" d="M213.8,271h72.4c1.2,0,2.2,1,2.2,2.2v8.9c0,1.2-1,2.2-2.2,2.2h-72.4c-1.2,0-2.2-1-2.2-2.2v-8.9&#xA;&#9;&#9;C211.6,272,212.6,271,213.8,271z" style="fill: rgb(104, 225, 253);"/>
	<path class="st1_paris-43" d="M284.2,286.3h-68.4c-3.4,0-6.2-2.8-6.2-6.2v-4.9c0-3.4,2.8-6.2,6.2-6.2l0,0h68.4c3.4,0,6.2,2.8,6.2,6.2v4.9&#xA;&#9;&#9;C290.3,283.5,287.6,286.3,284.2,286.3z M215.8,272.9c-1.3,0-2.3,1-2.3,2.3c0,0,0,0,0,0v4.9c0,1.3,1,2.3,2.3,2.3h68.4&#xA;&#9;&#9;c1.3,0,2.3-1,2.3-2.3v-4.9c0-1.3-1-2.3-2.3-2.3H215.8z"/>
	<path class="st1_paris-43" d="M178.5,365h143.1c1.2,0,2.1,0.9,2.1,2.1v10.5c0,1.2-0.9,2.1-2.1,2.1H178.5c-1.2,0-2.1-0.9-2.1-2.1v-10.5&#xA;&#9;&#9;C176.4,365.9,177.3,365,178.5,365z"/>
	<path class="st1_paris-43" d="M319.6,381.6H180.4c-3.3,0-6-2.7-6-6V369c0-3.3,2.7-6,6-6h139.2c3.3,0,6,2.7,6,6v6.6&#xA;&#9;&#9;C325.6,378.9,322.9,381.6,319.6,381.6z M180.4,366.9c-1.2,0-2.1,0.9-2.1,2.1v6.6c0,1.2,1,2.1,2.1,2.1h139.2c1.2,0,2.1-0.9,2.1-2.1&#xA;&#9;&#9;V369c0-1.2-1-2.1-2.1-2.1L180.4,366.9z"/>
	<path class="st3_paris-43 targetColor" d="M182.8,354.7h134.3c0.7,0,1.3,0.6,1.3,1.3v7.7c0,0.7-0.6,1.3-1.3,1.3H182.8c-0.7,0-1.3-0.6-1.3-1.3V356&#xA;&#9;&#9;C181.6,355.2,182.1,354.7,182.8,354.7z" style="fill: rgb(104, 225, 253);"/>
	<path class="st1_paris-43" d="M316,366.9H184c-2.4,0-4.4-2-4.4-4.4l0,0v-5.4c0-2.4,2-4.4,4.4-4.4h132c2.4,0,4.4,2,4.4,4.4v5.4&#xA;&#9;&#9;C320.4,364.9,318.4,366.9,316,366.9L316,366.9z M184,356.6c-0.3,0-0.6,0.2-0.6,0.6v5.4c0,0.3,0.3,0.6,0.6,0.6h132&#xA;&#9;&#9;c0.3,0,0.6-0.3,0.6-0.6v-5.4c0-0.3-0.3-0.6-0.6-0.6H184z"/>
	<path class="st1_paris-43" d="M210.7,284.4h78.6c1,0,1.7,0.8,1.7,1.7v7.1c0,1-0.8,1.7-1.7,1.7h-78.6c-1,0-1.7-0.8-1.7-1.7v-7.1&#xA;&#9;&#9;C209,285.1,209.7,284.4,210.7,284.4z"/>
	<path class="st1_paris-43" d="M287.7,296.9h-75.4c-2.9,0-5.3-2.4-5.3-5.3v-3.9c0-2.9,2.4-5.3,5.3-5.3h75.4c2.9,0,5.3,2.3,5.3,5.2&#xA;&#9;&#9;c0,0,0,0,0,0v3.9C293,294.5,290.6,296.9,287.7,296.9C287.7,296.9,287.7,296.9,287.7,296.9z M212.3,286.3c-0.8,0-1.4,0.6-1.4,1.4&#xA;&#9;&#9;v3.9c0,0.8,0.6,1.4,1.4,1.4h0h75.4c0.8,0,1.4-0.6,1.4-1.4v0v-3.9c0-0.8-0.6-1.4-1.4-1.4H212.3z"/>
</g>
</svg>