<svg viewBox="0 0 72 72" xmlns="http://www.w3.org/2000/svg"><path d="m15.0229 16.2834h41.9541v40.9771h-41.9541z" fill="#f4aa41"/><path d="m16 55.7479-5 .2v5.0417h50v-7.0417l-5 .2" fill="#e27022"/><path d="m56 16.2834 5-.2v-5.0417h-50v7.0417l5-.2" fill="#e27022"/><g style="fill:none;stroke:#000;stroke-linecap:round;stroke-linejoin:round;stroke-miterlimit:10;stroke-width:2"><path d="m16 55.7479-5 .2v5.0417h50v-7.0417l-5 .2"/><path d="m56 16.2834 5-.2v-5.0417h-50v7.0417l5-.2"/><path d="m56 16.2834-21.3742.8549-18.6258.7451"/><path d="m16 55.7479 40-1.6"/><path d="m16 22.0023v28.058"/><path d="m56 22.0023v28.058"/><path d="m20.8523 24.9034h11.0091"/><path d="m20.8523 30.1515h31.1667"/><path d="m20.8523 35.3997h31.1667"/><path d="m20.8523 40.6479h31.1667"/><path d="m20.8523 45.896h31.1667"/></g></svg>