<?xml version="1.0" encoding="UTF-8" standalone="no"?>
<!-- Created with Inkscape (http://www.inkscape.org/) -->

<svg
   width="1600"
   height="1600"
   viewBox="0 0 423.33291 423.33334"
   version="1.1"
   id="svg5"
   inkscape:version="1.1 (c68e22c387, 2021-05-23)"
   sodipodi:docname="Tex01.svg"
   xmlns:inkscape="http://www.inkscape.org/namespaces/inkscape"
   xmlns:sodipodi="http://sodipodi.sourceforge.net/DTD/sodipodi-0.dtd"
   xmlns="http://www.w3.org/2000/svg"
   xmlns:svg="http://www.w3.org/2000/svg">
  <sodipodi:namedview
     id="namedview7"
     pagecolor="#505050"
     bordercolor="#ffffff"
     borderopacity="1"
     inkscape:pageshadow="0"
     inkscape:pageopacity="0"
     inkscape:pagecheckerboard="1"
     inkscape:document-units="mm"
     showgrid="false"
     units="px"
     inkscape:zoom="0.16592137"
     inkscape:cx="1389.2123"
     inkscape:cy="488.18306"
     inkscape:window-width="1920"
     inkscape:window-height="1053"
     inkscape:window-x="-9"
     inkscape:window-y="-9"
     inkscape:window-maximized="1"
     inkscape:current-layer="layer1"
     width="49px" />
  <defs
     id="defs2" />
  <g
     inkscape:label="Layer 1"
     inkscape:groupmode="layer"
     id="layer1">
    <path
       d="m 415.5696,261.87698 c -6.42847,0 -10.97547,-0.60822 -13.6427,-1.82388 -2.6672,-1.21564 -5.36772,-3.58027 -8.10325,-7.0923 l -50.6745,-71.73771 32.4148,-46.40668 c 2.73556,-3.6478 6.46263,-6.95816 11.18131,-9.92943 4.71865,-2.9713 12.4803,-4.45851 23.2858,-4.45851 v -7.09315 h -56.00811 v 7.09315 c 4.51365,0 8.035,1.11443 10.56548,3.34329 2.5306,2.22889 3.79545,4.69473 3.79545,7.39685 0,0.94573 -0.0679,1.85764 -0.20505,2.73587 -0.137,0.87821 -0.68408,1.79014 -1.64148,2.73585 l -27.08115,39.31438 -30.77332,-44.7861 -0.92323,-1.11443 c 0,0 -0.30748,-0.77695 -0.92325,-2.33008 0,-1.89141 1.29986,-3.58034 3.89791,-5.06596 2.59807,-1.48563 6.15517,-2.22886 10.668,-2.22886 v -7.09315 h -65.24036 v 7.09315 h 3.69294 c 6.29177,0 11.01047,0.54072 14.15593,1.6214 3.14551,1.08072 5.60772,2.9721 7.38589,5.67422 l 43.49356,64.23989 -37.95418,55.52674 c -1.77817,2.70212 -5.02694,5.77543 -9.74557,9.2207 -4.71868,3.44536 -12.95942,5.168 -24.72152,5.168 v 7.09231 h 13.35071 c -2.69977,14.25287 -6.46428,24.9994 -11.30006,32.22185 -5.60771,8.37628 -18.32716,12.56397 -38.16001,12.56397 h -30.77415 c -5.47105,0 -8.65071,-0.60821 -9.5398,-1.82386 -0.88905,-1.21566 -1.33317,-3.58029 -1.33317,-7.09233 v -60.99764 h 19.90032 c 10.80548,0 17.71141,2.02642 20.72107,6.07993 3.00967,4.05358 4.51367,11.01088 4.51367,20.87278 h 5.53939 v -60.79515 h -5.53939 c 0,9.86192 -1.2649,16.78627 -3.79541,20.7715 -2.53053,3.98524 -9.67646,5.97784 -21.43933,5.97784 h -19.90032 v -55.52671 c 0,-3.51277 0.44492,-5.87745 1.33317,-7.09227 0.88828,-1.21491 4.06875,-1.82394 9.5398,-1.82394 h 28.92767 c 18.05388,0 29.64513,3.44454 34.77376,10.33517 5.12861,6.89057 8.65072,18.37391 10.5655,34.45069 h 5.33442 l -7.18006,-51.87813 H 152.83637 l -3.56359,-50.05543 H 6.2774979 l -3.692919,51.8785 h 5.3344059 c 1.9147886,-18.77903 5.0611062,-30.9381 9.4372992,-36.4773 4.376207,-5.53923 15.181692,-8.30882 32.414816,-8.30882 h 12.515287 c 2.735538,0 4.342042,0.81069 4.821149,2.43133 0.479107,1.62058 0.718257,3.78282 0.718257,6.48489 v 119.96993 c 0,3.51277 -0.991558,6.18034 -2.97469,8.00424 -1.983117,1.8239 -8.856517,2.73585 -20.618577,2.73585 H 33.359531 v 7.09229 h 86.987199 v -7.09229 h -7.38586 c -11.76206,0 -18.601301,-0.91195 -20.515268,-2.73585 -1.913996,-1.8239 -2.872196,-4.49223 -2.872196,-8.00424 V 131.16941 c 0,-2.70207 0.136573,-4.62722 0.409959,-5.77541 0.273315,-1.14818 1.299039,-2.19513 3.077985,-3.1416 h 12.72027 c 17.23312,0 28.03782,2.76958 32.41482,8.30877 4.23141,5.35603 7.24515,16.91976 9.04768,34.65345 h -17.86921 v 7.0923 h 5.3344 c 9.16398,0 14.4976,0.67572 16.00242,2.02636 1.50482,1.35065 2.25644,4.25602 2.25644,8.71373 v 119.96968 c 0,4.45848 -0.75245,7.36305 -2.25644,8.71452 -1.50401,1.35144 -6.83844,2.0264 -16.00242,2.0264 h -5.3344 v 7.09229 h 133.96793 l 7.94141,-51.87818 h 39.24511 v -7.09229 c -5.47106,0 -9.2665,-1.35146 -11.38627,-4.05358 -2.11976,-2.70208 -3.17963,-4.9309 -3.17963,-6.68733 0,-0.94568 0.0683,-1.85763 0.20501,-2.73584 0.13686,-0.87821 0.68409,-1.79014 1.64071,-2.73584 l 32.62061,-48.23113 36.10774,55.52592 c 0,0.81068 0.30747,1.28395 0.92324,1.41816 l 0.92322,0.20251 c 0,1.89143 -1.26491,3.58029 -3.79542,5.06589 -2.53056,1.48569 -6.05186,2.22889 -10.56554,2.22889 v 7.09228 h 65.03463 v -7.09228 z"
       id="path824"
       style="fill:#00aa00;stroke-width:0.808434" />
  </g>
</svg>
